# xmcd
#
# Track frame offsets:
#	150
#	1069
#	12291
#	28543
#	29113
#	41468
#	56699
#	73031
#	73572
#	85079
#	85524
#	98474
#	112993
#	128517
#
# Disc length: 1926 seconds
#
# Revision: 1
# Processed by: cddbd v1.5.2PL0 Copyright (c) Steve Scherf et al.
# Submitted via: audiograbber 1.83.01
#
DISCID=9e07840e
DTITLE=Various Artist - Hillcrest #07
DYEAR=1900
DGENRE=Country
TTITLE0=Undertakin' Daddies - Liner
TTITLE1=Undertakin' Daddies - New Fallen Snow
TTITLE2=Anne Louise Genest - We Survived
TTITLE3=Gary Fjellgaard - Liner
TTITLE4=Gary Fjellgaard and Valdy - The Boys Of Rhythm
TTITLE5=The Pointer Brothers - Younger Days
TTITLE6=Tom Coles - Get Away
TTITLE7=Chantelle Ashby - ID Liner
TTITLE8=Chantelle Ashby - A Faster Train
TTITLE9=Ronnie Masters - ID Liner
TTITLE10=Ronnie Masters - Love Might Be The Death Of Me
TTITLE11=Magic Car - The Lonesome Cowboy
TTITLE12=Larry Ford - I Feel The Blues Movin' On
TTITLE13=Faron Brown, Jr. - Little White House
EXTD=
EXTT0=
EXTT1=
EXTT2=
EXTT3=
EXTT4=
EXTT5=
EXTT6=
EXTT7=
EXTT8=
EXTT9=
EXTT10=
EXTT11=
EXTT12=
EXTT13=
PLAYORDER=
